<svg width="22" height="22" viewBox="0 0 22 22" fill="none" xmlns="http://www.w3.org/2000/svg">
<path d="M8.90721 0.62967C7.73934 0.626604 6.58248 0.845257 5.50394 1.27292C4.4254 1.70059 3.4467 2.32873 2.62479 3.1208C1.21932 4.42194 0.326978 6.14604 0.0982751 8.00226C-0.1061 9.28728 0.00928922 10.6002 0.435115 11.8347C0.860941 13.0693 1.58524 14.1908 2.54939 15.1085C4.06781 16.6461 6.15292 17.5601 8.36419 17.6572C10.0456 17.7535 11.7201 17.3808 13.1835 16.5844C13.6058 16.354 13.6586 16.3612 13.998 16.6852L18.2742 20.7675C18.6911 21.1916 19.2328 21.4853 19.8279 21.6099C20.1216 21.6517 20.4215 21.6269 20.7033 21.5376C20.9851 21.4483 21.241 21.297 21.4502 21.0959C21.6595 20.8947 21.8162 20.6494 21.9078 20.3797C21.9993 20.1101 22.0231 19.8236 21.9773 19.5435C21.8453 18.99 21.5402 18.4878 21.1024 18.1036L16.781 13.9781C16.4944 13.7045 16.4793 13.6325 16.6829 13.3013C17.2574 12.3527 17.6315 11.3058 17.784 10.2198C18.0618 8.33067 17.6404 6.40822 16.5924 4.78395C15.6347 3.2452 14.1864 2.03926 12.4594 1.34244C11.3388 0.875774 10.1299 0.633202 8.90721 0.62967ZM2.391 9.15423C2.391 7.9176 2.77534 6.70877 3.49533 5.68075C4.21532 4.65273 5.2386 3.85173 6.43568 3.37915C7.63275 2.90658 8.94979 2.78366 10.2201 3.02596C11.4903 3.26827 12.6568 3.86489 13.5717 4.74033C14.4866 5.61577 15.1089 6.73066 15.3598 7.94388C15.6107 9.1571 15.4789 10.4141 14.9811 11.5558C14.4833 12.6975 13.6419 13.6725 12.5634 14.3574C11.4848 15.0424 10.2177 15.4065 8.92228 15.4037C8.06359 15.4027 7.2135 15.2403 6.42055 14.9257C5.62761 14.6112 4.90733 14.1506 4.30085 13.5703C3.69436 12.9899 3.21356 12.3013 2.88586 11.5436C2.55817 10.7859 2.39001 9.97397 2.391 9.15423Z" fill="white"/>
<path d="M12.6782 7.41189C12.8818 7.80788 13.0779 7.87268 13.3041 7.86548C13.3931 7.86052 13.4797 7.8358 13.5569 7.79331C13.6342 7.75081 13.7 7.6917 13.7491 7.62068C13.7941 7.53716 13.8176 7.4446 13.8176 7.35068C13.8176 7.25677 13.7941 7.16421 13.7491 7.08069C13.4555 6.41624 13.0127 5.82145 12.4519 5.33834C11.9042 4.85598 11.2592 4.48526 10.5564 4.24882C9.85361 4.01239 9.10768 3.91519 8.36419 3.96318C7.77688 4.00351 7.20076 4.13735 6.65971 4.35917C6.53618 4.40437 6.43349 4.48999 6.36994 4.60076C6.3064 4.71153 6.28615 4.84024 6.31279 4.96395C6.33639 5.08909 6.4067 5.20183 6.51071 5.28126C6.61472 5.36069 6.74537 5.40143 6.87844 5.39594C6.96511 5.39047 7.04973 5.36843 7.12731 5.33114C7.64551 5.15451 8.19106 5.06203 8.74129 5.05755C9.56556 5.04517 10.376 5.26091 11.0746 5.6787C11.7732 6.09649 12.3302 6.69846 12.6782 7.41189Z" fill="white"/>
</svg>
