<svg width="40" height="36" viewBox="0 0 40 36" fill="none" xmlns="http://www.w3.org/2000/svg">
<path d="M0 5C0 2.23858 2.23858 0 5 0H35C37.7614 0 40 2.23858 40 5V31C40 33.7614 37.7614 36 35 36H5C2.23858 36 0 33.7614 0 31V5Z" fill="#008FCD"/>
<path d="M13.297 13.3988H27.6971C27.8671 13.37 28.0417 13.4002 28.1926 13.4846C28.3435 13.5689 28.4618 13.7025 28.5284 13.8635C28.5762 13.9507 28.6717 14.1056 28.5284 14.58L28.4233 14.9866C28.0602 16.3226 27.6971 17.6489 27.334 18.9656C27.1804 19.4645 26.8924 19.9101 26.5024 20.2522C26.1125 20.5942 25.636 20.8192 25.1267 20.9019C24.7178 20.953 24.306 20.9756 23.894 20.9696H14.931C14.8157 20.9858 14.6983 20.9721 14.5896 20.9298C14.481 20.8874 14.3848 20.8179 14.3099 20.7276C14.2032 20.5895 14.1459 20.4189 14.1474 20.2435C13.985 18.985 13.8321 17.7361 13.6697 16.4775L13.2875 13.3988M9.63726 6.05071H9.22638C8.91713 6.0547 8.62047 6.17544 8.39442 6.3893C8.16837 6.60316 8.02919 6.89475 8.0041 7.20707C7.97901 7.51939 8.06979 7.82998 8.25873 8.07806C8.44767 8.32615 8.72118 8.4939 9.02572 8.54851C9.14975 8.55842 9.27434 8.55842 9.39837 8.54851H9.81881C9.9551 8.54481 10.0879 8.59213 10.192 8.68143C10.296 8.77074 10.3638 8.89576 10.3826 9.03257C10.3826 9.18748 10.3826 9.35206 10.4495 9.51664L11.3572 16.7583C11.5197 18.0071 11.6726 19.256 11.835 20.5146C11.8951 21.1753 12.1554 21.8009 12.5804 22.3057C12.8797 22.651 13.251 22.9248 13.6674 23.1073C14.0838 23.2898 14.5349 23.3764 14.9883 23.3609H23.9514C24.4623 23.3649 24.973 23.3358 25.4802 23.2738C26.4569 23.1306 27.3726 22.7071 28.1193 22.0535C28.866 21.3999 29.4125 20.5434 29.6942 19.5852L30.7835 15.5965L30.8886 15.1899C31.0482 14.6955 31.0881 14.1694 31.0049 13.6561C30.9217 13.1427 30.7178 12.6572 30.4105 12.2405C30.1032 11.8238 29.7014 11.488 29.2392 11.2617C28.7769 11.0353 28.2676 10.9249 27.7544 10.9398H13.5837C13.5147 10.9497 13.4445 10.9442 13.3779 10.9238C13.3113 10.9033 13.2499 10.8683 13.198 10.8213C13.1461 10.7742 13.105 10.7163 13.0775 10.6515C13.0501 10.5867 13.0369 10.5165 13.039 10.446C12.9721 9.86516 12.9052 9.28429 12.8192 8.70341C12.7579 8.1281 12.5341 7.58288 12.1749 7.13303C11.8156 6.68319 11.336 6.34774 10.7935 6.16688C10.424 6.04329 10.0357 5.98757 9.64682 6.00232L9.63726 6.05071Z" fill="white"/>
<path d="M14.8355 24.8422C14.2386 24.8425 13.6603 25.0525 13.1992 25.4365C12.738 25.8204 12.4224 26.3544 12.3063 26.9476C12.1902 27.5408 12.2807 28.1564 12.5623 28.6896C12.844 29.2227 13.2994 29.6405 13.8509 29.8716C14.4025 30.1027 15.0161 30.133 15.5871 29.9571C16.1582 29.7813 16.6515 29.4103 16.9828 28.9073C17.3142 28.4043 17.4632 27.8005 17.4045 27.1987C17.3457 26.5969 17.0828 26.0344 16.6606 25.607C16.4224 25.3621 16.1382 25.1682 15.8246 25.0369C15.5111 24.9055 15.1747 24.8393 14.8355 24.8422Z" fill="white"/>
<path d="M24.152 24.8421C23.4669 24.8421 22.8097 25.1172 22.3243 25.6071C21.839 26.0971 21.565 26.762 21.5625 27.4561C21.5615 27.7981 21.6277 28.137 21.7573 28.4528C21.8869 28.7686 22.0773 29.0551 22.3174 29.2955C22.8043 29.7803 23.4598 30.0516 24.1425 30.0507C24.8218 30.0507 25.4737 29.7793 25.9567 29.2954C26.4398 28.8114 26.7149 28.154 26.7225 27.4658C26.7284 27.121 26.6654 26.7786 26.5373 26.4592C26.4093 26.1397 26.2187 25.8498 25.9771 25.607C25.7366 25.3627 25.4505 25.1693 25.1356 25.038C24.8206 24.9067 24.483 24.8401 24.1425 24.8421H24.152Z" fill="white"/>
</svg>
