<svg width="40" height="36" viewBox="0 0 40 36" fill="none" xmlns="http://www.w3.org/2000/svg">
<path d="M0 5C0 2.23858 2.23858 0 5 0H35C37.7614 0 40 2.23858 40 5V31C40 33.7614 37.7614 36 35 36H5C2.23858 36 0 33.7614 0 31V5Z" fill="#E99712"/>
<path d="M21.5858 21.903C22.5411 21.903 23.4008 21.903 24.3082 21.903C25.1753 21.892 26.0307 22.1037 26.7931 22.5178C27.5556 22.932 28.1997 23.535 28.6641 24.2693C29.2805 25.1335 29.596 26.1772 29.562 27.2392V27.5553H10.4001C10.3848 27.1164 10.4104 26.677 10.4765 26.2428C10.6974 25.051 11.3257 23.9737 12.2532 23.1964C13.2499 22.3263 14.5333 21.8586 15.8544 21.8839H21.5858M21.5858 19.4889H15.8544C13.9623 19.4747 12.1306 20.1563 10.7057 21.4049C9.36608 22.535 8.45812 24.0956 8.13616 25.8213C8.01865 26.5462 7.97702 27.2815 8.01197 28.0152C8.01197 28.2834 8.01197 28.5516 8.01197 28.8199C7.97406 29.1411 8.06321 29.4644 8.26031 29.7204C8.3929 29.8281 8.54602 29.9074 8.71029 29.9535C8.87456 29.9996 9.0465 30.0116 9.21554 29.9887H30.9949C31.6826 29.9887 31.9979 29.6725 31.9979 29.0306V27.3446C32.0359 25.7786 31.5667 24.2424 30.6605 22.9664C29.9789 21.9246 29.0489 21.0696 27.9547 20.4791C26.8605 19.8886 25.6367 19.5812 24.3942 19.5847C23.439 19.5847 22.5506 19.5847 21.6336 19.5847L21.5858 19.4889Z" fill="white"/>
<path d="M19.9906 8.3759C20.4802 8.37427 20.9653 8.46996 21.4178 8.65741C21.8703 8.84487 22.2813 9.12038 22.627 9.46804C23.1389 9.98608 23.4862 10.6447 23.6249 11.3606C23.7637 12.0765 23.6877 12.8176 23.4065 13.4902C23.1254 14.1629 22.6517 14.7368 22.0454 15.1395C21.4391 15.5421 20.7274 15.7555 20.0002 15.7526H19.9428C19.4679 15.7549 18.9972 15.663 18.5579 15.4821C18.1185 15.3013 17.7192 15.0351 17.3828 14.6988C16.8661 14.1835 16.5137 13.5258 16.3703 12.8093C16.2269 12.0928 16.2989 11.3498 16.5773 10.6744C16.8557 9.99902 17.3278 9.42181 17.9338 9.01599C18.5398 8.61018 19.2524 8.39407 19.9811 8.39508M19.9811 6.00005C18.7783 5.99818 17.6021 6.35495 16.602 7.02507C15.6019 7.69519 14.823 8.64838 14.3643 9.76351C13.9056 10.8786 13.7879 12.1053 14.026 13.2878C14.2641 14.4702 14.8473 15.5549 15.7016 16.404C16.2573 16.9644 16.9182 17.4088 17.6462 17.7114C18.3742 18.0139 19.1548 18.1687 19.9428 18.1668H20.0384C21.6471 18.1604 23.1874 17.5134 24.3205 16.3681C25.4535 15.2227 26.0865 13.6729 26.0802 12.0595C26.0739 10.446 25.4287 8.90125 24.2867 7.76489C23.1447 6.62853 21.5993 5.9937 19.9906 6.00005H19.9811Z" fill="white"/>
</svg>
