<svg width="14" height="13" viewBox="0 0 14 13" fill="none" xmlns="http://www.w3.org/2000/svg">
<path d="M6.86196 12.0426C6.78579 12.2002 6.67931 12.3383 6.54972 12.4475C6.42013 12.5567 6.27044 12.6344 6.11079 12.6754C5.95114 12.7163 5.78526 12.7196 5.62433 12.685C5.46341 12.6504 5.3112 12.5787 5.17801 12.4748C5.09646 12.4075 5.01942 12.334 4.94743 12.2549L0.39865 7.32601C0.26994 7.20654 0.167396 7.0574 0.0984973 6.8895C0.0295987 6.72159 -0.00392456 6.53914 0.000365472 6.3554C-0.00301565 6.17069 0.0308889 5.98742 0.0996915 5.81843C0.168494 5.64945 0.270533 5.49885 0.39865 5.3772L5.00332 0.387647C5.14494 0.226496 5.32365 0.10929 5.52095 0.0481204C5.71826 -0.0130496 5.92702 -0.0159485 6.12572 0.039697C6.32441 0.0953425 6.50583 0.207521 6.65122 0.364668C6.79661 0.521815 6.90072 0.718217 6.9528 0.933616C7.00836 1.12974 7.015 1.33836 6.97204 1.53818C6.92907 1.738 6.83804 1.92186 6.70824 2.07105C6.51958 2.29095 6.32394 2.49571 6.1283 2.70803L2.93507 6.1734C2.76737 6.35538 2.76737 6.35539 2.93507 6.52979L6.60343 10.5108C6.79863 10.6976 6.93026 10.9503 6.97715 11.2281C7.02404 11.5059 6.98347 11.7928 6.86196 12.0426Z" fill="white"/>
<path d="M13.862 12.0426C13.7858 12.2002 13.6793 12.3383 13.5497 12.4475C13.4201 12.5567 13.2704 12.6344 13.1108 12.6754C12.9511 12.7163 12.7853 12.7196 12.6243 12.685C12.4634 12.6504 12.3112 12.5787 12.178 12.4748C12.0965 12.4075 12.0194 12.334 11.9474 12.2549L7.39865 7.32601C7.26994 7.20654 7.1674 7.0574 7.0985 6.8895C7.0296 6.72159 6.99608 6.53914 7.00037 6.3554C6.99698 6.17069 7.03089 5.98742 7.09969 5.81843C7.16849 5.64945 7.27053 5.49885 7.39865 5.3772L12.0033 0.387647C12.1449 0.226496 12.3236 0.10929 12.521 0.0481204C12.7183 -0.0130496 12.927 -0.0159485 13.1257 0.039697C13.3244 0.0953425 13.5058 0.207521 13.6512 0.364668C13.7966 0.521815 13.9007 0.718217 13.9528 0.933616C14.0084 1.12974 14.015 1.33836 13.972 1.53818C13.9291 1.738 13.838 1.92186 13.7082 2.07105C13.5196 2.29095 13.3239 2.49571 13.1283 2.70803L9.93507 6.1734C9.76737 6.35538 9.76737 6.35539 9.93507 6.52979L13.6034 10.5108C13.7986 10.6976 13.9303 10.9503 13.9772 11.2281C14.024 11.5059 13.9835 11.7928 13.862 12.0426Z" fill="white"/>
</svg>
